<svg width="94" height="94" viewBox="0 0 94 94" fill="none" xmlns="http://www.w3.org/2000/svg">
<path d="M47 0C40.8279 0 34.7162 1.21569 29.0139 3.57766C23.3116 5.93963 18.1303 9.40163 13.766 13.766C4.95177 22.5802 0 34.5348 0 47C0 59.4652 4.95177 71.4198 13.766 80.234C18.1303 84.5984 23.3116 88.0604 29.0139 90.4223C34.7162 92.7843 40.8279 94 47 94C59.4652 94 71.4198 89.0482 80.234 80.234C89.0482 71.4198 94 59.4652 94 47C94 40.8279 92.7843 34.7162 90.4223 29.0139C88.0604 23.3116 84.5984 18.1303 80.234 13.766C75.8697 9.40163 70.6884 5.93963 64.9861 3.57766C59.2838 1.21569 53.1721 0 47 0ZM47 9.4C56.9721 9.4 66.5358 13.3614 73.5872 20.4128C80.6386 27.4642 84.6 37.0279 84.6 47C84.6 56.9721 80.6386 66.5358 73.5872 73.5872C66.5358 80.6386 56.9721 84.6 47 84.6C37.0279 84.6 27.4642 80.6386 20.4128 73.5872C13.3614 66.5358 9.4 56.9721 9.4 47C9.4 37.0279 13.3614 27.4642 20.4128 20.4128C27.4642 13.3614 37.0279 9.4 47 9.4ZM23.5 37.6L47 61.1L70.5 37.6H23.5Z" fill="currentColor"/>
</svg>
