<svg width="72" height="46" viewBox="0 0 72 46" fill="none" xmlns="http://www.w3.org/2000/svg">
<path d="M11.9663 5.66664H59.8317V33.9998H11.9663M59.8317 39.6665C61.4185 39.6665 62.9403 39.0695 64.0624 38.0068C65.1845 36.9441 65.8148 35.5027 65.8148 33.9998V5.66664C65.8148 2.52165 63.1224 0 59.8317 0H11.9663C8.64567 0 5.98317 2.52165 5.98317 5.66664V33.9998C5.98317 35.5027 6.61353 36.9441 7.73559 38.0068C8.85766 39.0695 10.3795 39.6665 11.9663 39.6665H0V45.3331H71.798V39.6665H59.8317Z" fill="currentColor"/>
<path d="M36.9441 12.8447L38.5077 13.1469L35.5241 26.4447L33.9605 26.1424L36.9441 12.8447ZM42.289 19.6447L39.4251 16.9323V14.7941L44.5467 19.6447L39.4251 24.4878V22.3496L42.289 19.6447ZM27.9214 19.6447L33.043 14.7941V16.9323L30.1791 19.6447L33.043 22.3496V24.4878L27.9214 19.6447Z" fill="currentColor"/>
</svg>
