<svg width="18" height="13" viewBox="0 0 18 13" fill="none" xmlns="http://www.w3.org/2000/svg">
<path d="M0 0.714844H18V12.7355H0V0.714844ZM9 3.72C9.79565 3.72 10.5587 4.03661 11.1213 4.60019C11.6839 5.16376 12 5.92814 12 6.72515C12 7.52217 11.6839 8.28654 11.1213 8.85012C10.5587 9.4137 9.79565 9.73031 9 9.73031C8.20435 9.73031 7.44129 9.4137 6.87868 8.85012C6.31607 8.28654 6 7.52217 6 6.72515C6 5.92814 6.31607 5.16376 6.87868 4.60019C7.44129 4.03661 8.20435 3.72 9 3.72ZM4 2.71828C4 3.24963 3.78929 3.75921 3.41421 4.13492C3.03914 4.51064 2.53043 4.72172 2 4.72172V8.72859C2.53043 8.72859 3.03914 8.93967 3.41421 9.31538C3.78929 9.6911 4 10.2007 4 10.732H14C14 10.2007 14.2107 9.6911 14.5858 9.31538C14.9609 8.93967 15.4696 8.72859 16 8.72859V4.72172C15.4696 4.72172 14.9609 4.51064 14.5858 4.13492C14.2107 3.75921 14 3.24963 14 2.71828H4Z" fill="currentColor"/>
</svg>
