<svg width="75" height="92" viewBox="0 0 75 92" fill="none" xmlns="http://www.w3.org/2000/svg">
<path d="M37.5 0L0 16.7273V41.8182C0 65.0273 16 86.7309 37.5 92C59 86.7309 75 65.0273 75 41.8182V16.7273L37.5 0ZM54.0417 56.0782C46.375 65.1527 32.3333 64.8182 25 55.7855C15.9167 44.4109 22.3333 27.6836 36.25 25.0909C37.6667 24.8818 38.875 26.2618 38.375 27.6418C36.4583 32.7855 36.75 38.6818 39.7083 43.7836C42.6667 48.8855 47.5833 52.1055 52.9583 52.9836C54.375 53.1927 55 54.9491 54.0417 56.0782Z" fill="currentColor"/>
</svg>
