<svg width="20" height="19" viewBox="0 0 20 19" fill="none" xmlns="http://www.w3.org/2000/svg">
<path d="M11.67 12.6191L17.67 18.6295L19.78 16.4657L13.78 10.4554L11.67 12.6191ZM15.39 7.41021C15 7.41021 14.58 7.36013 14.25 7.21989L2.86 18.5794L0.75 16.4657L8.16 9.05303L6.39 7.26997L5.67 7.97118L4.22 6.55875V9.42367L3.52 10.1249L0 6.55875L0.7 5.85755H3.51L2.11 4.44513L5.67 0.879008C6.84 -0.293003 8.72 -0.293003 9.89 0.879008L7.78 3.04272L9.19 4.44513L8.48 5.15635L10.27 6.93941L12.09 5.05617C11.95 4.72561 11.89 4.30489 11.89 3.93425C11.89 1.96086 13.45 0.4082 15.39 0.4082C15.98 0.4082 16.5 0.548441 16.97 0.828922L14.3 3.50351L15.8 5.00609L18.47 2.3315C18.75 2.80231 18.89 3.30317 18.89 3.93425C18.89 5.85755 17.34 7.41021 15.39 7.41021Z" fill="currentColor"/>
</svg>
