<svg width="79" height="97" viewBox="0 0 79 97" fill="none" xmlns="http://www.w3.org/2000/svg">
<path d="M39.5 0L0 17.6364V44.0909C0 68.5614 16.8533 91.4445 39.5 97C62.1467 91.4445 79 68.5614 79 44.0909V17.6364L39.5 0ZM39.5 34.7877C46.5222 34.7877 52.1839 40.4755 52.1839 47.53C52.1839 54.5845 46.5222 60.2723 39.5 60.2723C32.4778 60.2723 26.8161 54.5405 26.8161 47.53C26.8161 40.5195 32.5217 34.7877 39.5 34.7877ZM39.5 22.0455L45.5567 30.8636C43.7133 30.07 41.6944 29.6732 39.5 29.6732C37.3056 29.6732 35.3306 30.07 33.4433 30.8636L39.5 22.0455ZM17.5556 34.7877L28.0889 33.9059C26.5967 35.2727 25.1922 36.7718 24.1389 38.6236C23.0417 40.4755 22.3833 42.4155 21.9444 44.4436L17.5556 34.7877ZM17.5556 60.2723L22.0761 50.7045C22.4272 52.6005 23.1294 54.5845 24.1389 56.4364C25.2361 58.3323 26.5967 59.9195 28.0889 61.1982L17.5556 60.2723ZM61.4444 34.7877L57.0556 44.4436C56.6167 42.4155 55.9144 40.4755 54.8611 38.6236C53.8078 36.7718 52.4472 35.2727 50.9111 33.8618L61.4444 34.7877ZM61.4444 60.2723L50.9111 61.1541C52.4033 59.8755 53.7639 58.2882 54.8611 56.4364C55.9144 54.5845 56.5728 52.6005 56.9239 50.7045L61.4444 60.2723ZM39.5 72.9705L33.3994 64.2405C35.2867 64.9018 37.3056 65.3427 39.5 65.3427C41.6944 65.3427 43.6694 64.9018 45.5128 64.2405L39.5 72.9705Z" fill="currentColor"/>
</svg>
