<svg width="105" height="99" viewBox="0 0 105 99" fill="none" xmlns="http://www.w3.org/2000/svg">
<path d="M0 54.45C0 66.2654 5.53123 77.5969 15.3769 85.9516C25.2226 94.3063 38.5761 99 52.5 99C52.5 87.1846 46.9688 75.8531 37.1231 67.4984C27.2774 59.1436 13.9239 54.45 0 54.45ZM52.5 99C66.4239 99 79.7774 94.3063 89.6231 85.9516C99.4688 77.5969 105 66.2654 105 54.45C91.0761 54.45 77.7226 59.1436 67.8769 67.4984C58.0312 75.8531 52.5 87.1846 52.5 99ZM87.5 4.95V29.7C87.5 37.5769 83.8125 45.1312 77.2487 50.7011C70.685 56.2709 61.7826 59.4 52.5 59.4C43.2174 59.4 34.315 56.2709 27.7513 50.7011C21.1875 45.1312 17.5 37.5769 17.5 29.7V4.95C21.8167 4.95 26.075 5.544 30.1 6.8805C33.3083 8.019 36.1667 9.702 38.5583 11.8305L52.5 0L66.4417 11.8305C68.8333 9.702 71.6917 8.019 74.9 6.8805C78.925 5.544 83.1833 4.95 87.5 4.95Z" fill="currentColor"/>
</svg>
