<svg width="67" height="38" viewBox="0 0 67 38" fill="none" xmlns="http://www.w3.org/2000/svg">
<path d="M52.4348 32.5714V38H17.4783V32.5714C17.4783 32.5714 17.4783 21.7143 34.9565 21.7143C52.4348 21.7143 52.4348 32.5714 52.4348 32.5714ZM43.6957 8.14286C43.6957 6.53235 43.1831 4.95802 42.2228 3.61893C41.2626 2.27984 39.8977 1.23616 38.3008 0.619842C36.704 0.00352819 34.9468 -0.157728 33.2516 0.156466C31.5564 0.47066 29.9992 1.24619 28.777 2.38499C27.5548 3.52379 26.7225 4.97471 26.3853 6.55427C26.0481 8.13383 26.2212 9.77108 26.8826 11.259C27.5441 12.7469 28.6642 14.0186 30.1013 14.9134C31.5385 15.8081 33.2281 16.2857 34.9565 16.2857C37.2743 16.2857 39.4971 15.4278 41.136 13.9007C42.7749 12.3736 43.6957 10.3025 43.6957 8.14286ZM53.0174 21.8771C54.6098 23.246 55.8935 24.8966 56.7938 26.7328C57.6941 28.5689 58.1928 30.5537 58.2609 32.5714V38H67V32.5714C67 32.5714 67 23.2071 53.0174 21.8771ZM49.5217 3.09836e-06C48.6416 0.000493877 47.7669 0.128696 46.9291 0.380003C48.6334 2.65721 49.5472 5.36664 49.5472 8.14286C49.5472 10.9191 48.6334 13.6285 46.9291 15.9057C47.7669 16.157 48.6416 16.2852 49.5217 16.2857C51.8395 16.2857 54.0623 15.4278 55.7012 13.9007C57.3401 12.3736 58.2609 10.3025 58.2609 8.14286C58.2609 5.98324 57.3401 3.91207 55.7012 2.38499C54.0623 0.857909 51.8395 3.09836e-06 49.5217 3.09836e-06ZM18.4687 10.64L21.8478 14.4671L8.01087 27.36L0 19.2171L3.37913 16.0686L8.01087 20.3571L18.4687 10.64Z" fill="currentColor"/>
</svg>
